Coordinates
version=1
nRows=13
nColumns=22
inDegrees=yes

Units are S.I. units (second, meters, Newtons, ...)
If the header above contains a line with 'inDegrees', this indicates whether rotational values are in degrees (yes) or radians (no).

endheader
time	pelvis_tilt	pelvis_list	pelvis_rotation	pelvis_tx	pelvis_ty	pelvis_tz	hip_flexion_r	hip_adduction_r	hip_rotation_r	knee_angle_r	ankle_angle_r	subtalar_angle_r	hip_flexion_l	hip_adduction_l	hip_rotation_l	knee_angle_l	ankle_angle_l	subtalar_angle_l	lumbar_extension	lumbar_bending	lumbar_rotation
      1.28000000	     -3.80390486	      0.13667045	     -0.72062075	     -1.40008698	      0.98633304	     -0.64384072	     33.76907463	     -6.50281962	     -6.42636677	    -36.47969519	      7.38462363	      0.88987536	     -5.74019892	      3.70183947	    -10.34642666	     -6.89229209	     17.47847054	     -3.34241728	     -6.42664649	     -2.78274378	     -5.10020634
      1.29000000	     -3.76323720	      0.03847286	     -0.59132567	     -1.39569275	      0.98553843	     -0.64430317	     33.76274358	     -6.41045281	     -7.03685205	    -34.49506806	      7.21644318	      1.35927549	     -6.05822372	      3.60727907	    -10.27629774	     -6.89874016	     17.75780989	     -3.25724777	     -6.56607722	     -2.56192765	     -5.17769253
      1.30000000	     -3.70159499	     -0.05753508	     -0.45466059	     -1.39116437	      0.98472188	     -0.64466353	     33.70937004	     -6.30349197	     -7.65845166	    -32.52108273	      7.04307378	      1.89482437	     -6.40136015	      3.50351819	    -10.20342801	     -6.91633251	     18.04461210	     -3.13550688	     -6.73006176	     -2.35224097	     -5.26562063
      1.31000000	     -3.65328166	     -0.15793258	     -0.31133359	     -1.38651027	      0.98382897	     -0.64495126	     33.65352760	     -6.17712888	     -8.28912613	    -30.58109782	      6.84449684	      2.43872400	     -6.72442166	      3.38445895	    -10.13666985	     -6.96109552	     18.35591492	     -2.99577704	     -6.87764685	     -2.13637325	     -5.35580227
      1.32000000	     -3.59712840	     -0.25762334	     -0.17293681	     -1.38172339	      0.98289432	     -0.64511859	     33.57928442	     -6.02733604	     -8.91057979	    -28.69438709	      6.64215183	      3.02485610	     -7.05784093	      3.25547536	    -10.08162635	     -7.01840950	     18.68372826	     -2.81264928	     -7.03203467	     -1.93010732	     -5.44211667
      1.33000000	     -3.54443700	     -0.35117324	     -0.04504598	     -1.37680344	      0.98189701	     -0.64518495	     33.50824451	     -5.86149735	     -9.51899304	    -26.88530672	      6.43807895	      3.63483411	     -7.38848523	      3.12554183	    -10.03480551	     -7.09175396	     19.02676130	     -2.59300228	     -7.18266424	     -1.73266971	     -5.51822192
      1.34000000	     -3.51325346	     -0.45528954	      0.08499486	     -1.37173822	      0.98081396	     -0.64514893	     33.45248293	     -5.67259184	    -10.15188387	    -25.15790442	      6.26488361	      4.20450644	     -7.68174162	      2.97163395	     -9.99913337	     -7.21252881	     19.38406297	     -2.39012277	     -7.30323985	     -1.52915725	     -5.58445012
      1.35000000	     -3.46994264	     -0.54936280	      0.19880142	     -1.36650921	      0.97969393	     -0.64502147	     33.39090123	     -5.47838042	    -10.77828450	    -23.54141961	      6.10384562	      4.81790397	     -8.00437183	      2.82632333	     -9.97362838	     -7.32097292	     19.74209055	     -2.15296783	     -7.43230222	     -1.33745385	     -5.64086632
      1.36000000	     -3.43753156	     -0.64501077	      0.30623791	     -1.36112273	      0.97850828	     -0.64481242	     33.34540689	     -5.27534279	    -11.41404646	    -22.04462670	      5.97594679	      5.38787437	     -8.31132240	      2.67311417	     -9.95714455	     -7.45744525	     20.09256834	     -1.93560096	     -7.54348744	     -1.14416900	     -5.67965882
      1.37000000	     -3.44382542	     -0.74506285	      0.40266082	     -1.35557505	      0.97721748	     -0.64453754	     33.35693252	     -5.06602761	    -12.06786889	    -20.69157438	      5.82291310	      5.83844259	     -8.58388322	      2.51412422	     -9.94920824	     -7.60049022	     20.45145345	     -1.78317376	     -7.60026489	     -0.94275301	     -5.70317888
      1.38000000	     -3.36745841	     -0.83620359	      0.48789856	     -1.34985066	      0.97602660	     -0.64416215	     33.27708735	     -4.85378123	    -12.67952724	    -19.46309682	      5.83142359	      6.36431223	     -8.95200309	      2.35829597	     -9.95626828	     -7.75299398	     20.74913644	     -1.52321358	     -7.75344359	     -0.75484311	     -5.70675705
      1.39000000	     -3.34001571	     -0.93274065	      0.56293007	     -1.34395919	      0.97472830	     -0.64372740	     33.26609461	     -4.63565457	    -13.28015685	    -18.39294098	      5.83088788	      6.72422689	     -9.27555985	      2.19645657	     -9.97119574	     -7.91162111	     21.06163745	     -1.32330638	     -7.83803604	     -0.55284181	     -5.70822979
      1.40000000	     -3.31336619	     -1.03458438	      0.63168577	     -1.33790740	      0.97341371	     -0.64323039	     33.26932633	     -4.41567172	    -13.87361171	    -17.48270269	      5.86835573	      6.97141998	     -9.59685675	      2.02477575	     -9.98720609	     -8.09562445	     21.34443116	     -1.13383457	     -7.91860449	     -0.34029609	     -5.67969039
